<svg height="512" viewBox="0 0 64 64" width="512" xmlns="http://www.w3.org/2000/svg"><g id="Icons"><g><g><path d="m40 56h-32v-43c0-.552.448-1 1-1h30c.552 0 1 .448 1 1z" fill="#00a0c8"/></g><g><path d="m38 37h2v-8h-2c-1.105 0-2 .895-2 2v4c0 1.105.895 2 2 2z" fill="#0082aa"/></g><path d="m59.414 30.586-6-6c-.573-.573-1.431-.744-2.18-.434-.747.31-1.234 1.039-1.234 1.848v2h-12c-1.105 0-2 .895-2 2v4c0 1.104.895 2 2 2h12v2c0 .809.487 1.538 1.234 1.848.248.102.508.152.766.152.521 0 1.031-.203 1.414-.586l6-6c.781-.781.781-2.047 0-2.828z" fill="#fab400"/><g><g><path d="m42 8h-36c-1.105 0-2 .895-2 2v46h4v-43c0-.552.448-1 1-1h30c.552 0 1 .448 1 1v43h4v-46c0-1.105-.895-2-2-2z" fill="#c80a50"/></g><g><path d="m10 12h-1c-.552 0-1 .448-1 1v43h1v-43c0-.552.448-1 1-1z" fill="#0082aa"/></g></g><g><g><path d="m17 55 5.828-5.828c.75-.75 1.172-1.768 1.172-2.828v-10.344h-6v10l-5 5z" fill="#fab400"/></g><g><path d="m22 43h2v-6h-6v2c0 2.209 1.791 4 4 4z" fill="#dc9600"/></g><g><path d="m13 51 3.879 3.879c1.172 1.172 1.172 3.071 0 4.243l-.172.172c-.391.391-1.024.391-1.414 0l-4.586-4.586c-.391-.391-.391-1.024 0-1.414z" fill="#f0f0f0"/></g><g><path d="m18 36h15c1.657 0 3 1.343 3 3v9h-6v-6h-8c-2.209 0-4-1.791-4-4z" fill="#fab400"/></g><g><path d="m37 52h-6c-.552 0-1-.448-1-1v-3h6c1.105 0 2 .895 2 2v1c0 .552-.448 1-1 1z" fill="#f0f0f0"/></g><path d="m32 19c-1.105 0-2 .896-2 2v9h2c1.105 0 2-.895 2-2v-7c0-1.104-.895-2-2-2z" fill="#f0c8a0"/><g><path d="m25 26h5v4h-5z" fill="#c80a50"/></g><g><path d="m29 30v-2c0-1.105-.895-2-2-2h-2v4z" fill="#a00028"/></g><g><path d="m25 26h-5v-7c0-1.657 1.343-3 3-3h2c1.657 0 3 1.343 3 3v4c0 1.657-1.343 3-3 3z" fill="#f0c8a0"/></g><g><path d="m25 16h-2c-1.657 0-3 1.343-3 3v5c0 .55.45 1 1 1h2c.55 0 1-.45 1-1v-2h-1c-.552 0-1-.448-1-1s.448-1 1-1h4c.552 0 1-.448 1-1 0-1.657-1.343-3-3-3z" fill="#0a5078"/></g><g><path d="m27 39h-9v-10c0-1.105.895-2 2-2h6c1.105 0 2 .895 2 2v9c0 .552-.448 1-1 1z" fill="#dc9600"/></g><g><path d="m27 38h-9v-10c0-1.105.895-2 2-2h6c1.105 0 2 .895 2 2v9c0 .552-.448 1-1 1z" fill="#c80a50"/></g><g><path d="m20 31c1.105 0 2-.895 2-2s-.895-2-2-2h-1.732c-.17.294-.268.636-.268 1v3z" fill="#a00028"/></g><g><path d="m16 26h-2c-1.105 0-2 .895-2 2v7c0 1.105.895 2 2 2s2-.895 2-2z" fill="#f0c8a0"/></g><g><path d="m20 26h-4v4h4c1.105 0 2-.895 2-2s-.895-2-2-2z" fill="#c80a50"/></g></g><g><path d="m44 28h1v8h-1z" fill="#dc9600"/></g></g></g></svg>