<?xml version="1.0" encoding="iso-8859-1"?>
<!-- Generator: Adobe Illustrator 19.0.0, SVG Export Plug-In . SVG Version: 6.00 Build 0)  -->
<svg version="1.1" id="Capa_1" xmlns="http://www.w3.org/2000/svg" xmlns:xlink="http://www.w3.org/1999/xlink" x="0px" y="0px"
	 viewBox="0 0 512 512" style="enable-background:new 0 0 512 512;" xml:space="preserve">
<path style="fill:#D8401D;" d="M441.818,0H70.18C40.558,0,16.544,24.013,16.544,53.636v104.392
	c0,29.622,24.013,53.636,53.636,53.636h371.639c29.623,0,53.636-24.013,53.636-53.636V53.636C495.455,24.013,471.44,0,441.818,0z"/>
<path style="fill:#F9572B;" d="M70.18,186.392c-15.64,0-28.364-12.724-28.364-28.364V53.636c0-15.64,12.724-28.364,28.364-28.364
	h371.638c15.64,0,28.364,12.724,28.364,28.364v104.392c0,15.64-12.724,28.364-28.364,28.364H70.18z"/>
<path style="fill:#FFE2C5;" d="M155.999,306.647c14.411-7.996,32.57-2.797,40.558,11.616c9.963,17.955,11.186,26.85,11.186,26.85
	V204.935c0-7.209,2.922-13.741,7.655-18.474c4.733-4.733,11.265-7.656,18.474-7.656c14.423,0,26.118,11.69,26.129,26.111v92.517
	c0-14.432,11.699-26.131,26.131-26.131l0,0c14.432,0,26.131,11.699,26.131,26.131v6.663l0,0c0-14.432,11.699-26.131,26.131-26.131
	l0,0c14.432,0,26.131,11.699,26.131,26.131v26.131c0-14.432,11.699-26.131,26.131-26.131l0,0c14.432,0,26.131,11.699,26.131,26.131
	v60.268c0,56.193-36.045,121.504-99.857,121.504c0,0-45.511,0-77.832,0c-86.461,0-87.033-119.718-87.033-119.718
	s0.019-31.189-7.681-45.076C136.389,332.802,141.588,314.643,155.999,306.647z"/>
<g>
	<path style="fill:#E5C4A5;" d="M220.265,393.231c-6.828,0.314-12.521-5.179-12.521-12.014V204.935
		c0-7.213,2.927-13.742,7.656-18.47c4.739-4.739,11.267-7.656,18.481-7.656c4.37,0,8.498,1.074,12.11,2.98
		c-2.359,1.222-4.507,2.812-6.371,4.675c-4.728,4.728-7.656,11.257-7.656,18.47V381.21c0,6.387-4.991,11.693-11.372,12.006
		C220.484,393.221,220.374,393.226,220.265,393.231z"/>
	<path style="fill:#E5C4A5;" d="M272.522,350.098c-6.828,0.314-12.521-5.179-12.521-12.014v-40.651
		c0-7.213,2.927-13.742,7.656-18.47c4.739-4.739,11.267-7.656,18.481-7.656c4.37,0,8.498,1.074,12.11,2.98
		c-2.359,1.222-4.507,2.812-6.371,4.675c-4.728,4.728-7.656,11.257-7.656,18.47v40.644c0,6.387-4.991,11.693-11.372,12.006
		C272.741,350.087,272.631,350.092,272.522,350.098z"/>
	<path style="fill:#E5C4A5;" d="M324.784,340.964c-6.828,0.314-12.521-5.179-12.521-12.014v-24.856
		c0-7.213,2.927-13.742,7.656-18.47c4.739-4.739,11.267-7.656,18.481-7.656c4.37,0,8.498,1.074,12.11,2.98
		c-2.359,1.222-4.507,2.812-6.371,4.675c-4.728,4.728-7.656,11.257-7.656,18.47v24.847c0,6.387-4.991,11.693-11.372,12.006
		C325.003,340.954,324.893,340.958,324.784,340.964z"/>
	<path style="fill:#E5C4A5;" d="M377.045,351.298c-6.828,0.314-12.521-5.179-12.521-12.014v-9.059c0-7.213,2.927-13.742,7.656-18.47
		c4.739-4.739,11.267-7.656,18.481-7.656c4.37,0,8.498,1.074,12.11,2.98c-2.359,1.222-4.507,2.812-6.371,4.675
		c-4.728,4.728-7.656,11.257-7.656,18.47v9.051c0,6.387-4.991,11.693-11.372,12.006
		C377.264,351.288,377.155,351.293,377.045,351.298z"/>
	<path style="fill:#E5C4A5;" d="M263.323,512h-24.22c-86.465,0-87.033-119.72-87.033-119.72c0-0.168-0.011-31.233-7.687-45.08
		c-7.993-14.395-2.791-32.56,11.615-40.552c8.509-4.718,18.333-4.844,26.589-1.179c-0.8,0.358-1.59,0.748-2.369,1.179
		c-14.406,7.993-19.608,26.157-11.615,40.552c7.677,13.847,7.687,44.912,7.687,45.08C176.29,392.28,176.859,512,263.323,512z"/>
</g>
<g>
	<path style="fill:#FFFFFF;" d="M149.098,111.617h-34.707v44.271c0,4.165-5.09,6.325-10.026,6.325c-5.09,0-10.026-2.16-10.026-6.325
		V55.622c0-4.32,4.937-6.17,10.026-6.17c4.937,0,10.026,1.851,10.026,6.17v40.26h34.707v-40.26c0-4.32,4.937-6.17,10.026-6.17
		c4.937,0,10.026,1.851,10.026,6.17v100.265c0,4.165-5.09,6.325-10.026,6.325c-5.09,0-10.026-2.16-10.026-6.325V111.617z"/>
	<path style="fill:#FFFFFF;" d="M207.717,97.888h23.447c4.011,0,6.325,3.856,6.325,8.021c0,3.548-2.005,7.712-6.325,7.712h-23.447
		v31.005h43.654c4.011,0,6.325,4.165,6.325,8.947c0,4.165-2.005,8.638-6.325,8.638h-54.914c-4.473,0-8.793-2.16-8.793-6.325V55.777
		c0-4.165,4.32-6.325,8.793-6.325h54.914c4.32,0,6.325,4.473,6.325,8.638c0,4.782-2.314,8.947-6.325,8.947h-43.654V97.888z"/>
	<path style="fill:#FFFFFF;" d="M278.213,162.212c-4.473,0-8.793-2.16-8.793-6.325V55.622c0-4.32,4.936-6.17,10.026-6.17
		c4.937,0,10.026,1.851,10.026,6.17v89.004h37.638c4.011,0,6.016,4.32,6.016,8.793c0,4.32-2.005,8.793-6.016,8.793L278.213,162.212
		L278.213,162.212z"/>
	<path style="fill:#FFFFFF;" d="M344.081,55.622c0-3.239,2.931-6.17,7.559-6.17h31.005c19.591,0,35.016,9.41,35.016,34.707v0.926
		c0,25.297-15.888,35.016-36.25,35.016h-17.276v35.786c0,4.165-5.09,6.325-10.026,6.325c-5.09,0-10.026-2.16-10.026-6.325V55.622
		H344.081z M364.134,67.037v37.329h17.276c10.026,0,16.197-5.707,16.197-17.739v-1.851c0-12.032-6.17-17.739-16.197-17.739h-17.276
		V67.037z"/>
</g>
<g>
</g>
<g>
</g>
<g>
</g>
<g>
</g>
<g>
</g>
<g>
</g>
<g>
</g>
<g>
</g>
<g>
</g>
<g>
</g>
<g>
</g>
<g>
</g>
<g>
</g>
<g>
</g>
<g>
</g>
</svg>
